<svg xmlns="http://www.w3.org/2000/svg" ><title>ui 7</title><g data-name="Layer 7"><path d="M16,1A11,11,0,0,0,5,12c0,8.38,9.87,18.29,10.29,18.71A1,1,0,0,0,16,31a1,1,0,0,0,.7-.29C17.12,30.3,27,20.45,27,12A11,11,0,0,0,16,1Zm0,27.55C13.77,26.15,7,18.35,7,12a9,9,0,0,1,18,0C25,18.39,18.23,26.16,16,28.55ZM16,7.13a4.71,4.71,0,1,0,4.71,4.7A4.71,4.71,0,0,0,16,7.13Zm0,7.41a2.71,2.71,0,1,1,2.71-2.71A2.71,2.71,0,0,1,16,14.54Z"/></g><text x="0" y="47" fill="#000000" font-size="5px" font-weight="bold" font-family="'Helvetica Neue', Helvetica, Arial-Unicode, Arial, Sans-serif">Created by agus raharjo</text><text x="0" y="52" fill="#000000" font-size="5px" font-weight="bold" font-family="'Helvetica Neue', Helvetica, Arial-Unicode, Arial, Sans-serif">from the Noun Project</text></svg>