<svg height="512pt" viewBox="0 -26 512 512" width="512pt" xmlns="http://www.w3.org/2000/svg"><path d="m336 450h-40v-360h40zm0 0" fill="#ffc15a"/><path d="m216 450h-40v-360h40zm0 0" fill="#ffc15a"/><path d="m502 370v80h-166v-80zm0 0" fill="#ffc15a"/><path d="m462 290v80h-126v-80zm0 0" fill="#c68a65"/><path d="m422 210v80h-86v-80zm0 0" fill="#ffc15a"/><path d="m382 130v80h-46v-80zm0 0" fill="#c68a65"/><path d="m176 370v80h-166v-80zm0 0" fill="#ffc15a"/><path d="m176 290v80h-126v-80zm0 0" fill="#c68a65"/><path d="m176 210v80h-86v-80zm0 0" fill="#ffc15a"/><g fill="#c68a65"><path d="m176 130v80h-46v-80zm0 0"/><path d="m216 90h80v40h-80zm0 0"/><path d="m216 130h80v40h-80zm0 0"/><path d="m216 170h80v40h-80zm0 0"/><path d="m216 210h80v40h-80zm0 0"/><path d="m216 250h80v40h-80zm0 0"/><path d="m216 290h80v40h-80zm0 0"/><path d="m216 330h80v40h-80zm0 0"/><path d="m216 370h80v40h-80zm0 0"/><path d="m216 410h80v40h-80zm0 0"/></g><path d="m336 10v80h-160v-80zm0 0" fill="#ffc15a"/><path d="m502 360h-30v-70c0-5.523438-4.476562-10-10-10h-30v-70c0-5.523438-4.476562-10-10-10h-30v-70c0-5.523438-4.476562-10-10-10h-36v-110c0-5.523438-4.476562-10-10-10h-160c-5.523438 0-10 4.476562-10 10v110h-36c-5.523438 0-10 4.476562-10 10v70h-30c-5.523438 0-10 4.476562-10 10v70h-30c-5.523438 0-10 4.476562-10 10v70h-30c-5.523438 0-10 4.476562-10 10v80c0 5.523438 4.476562 10 10 10h492c5.523438 0 10-4.476562 10-10v-80c0-5.523438-4.476562-10-10-10zm-50 0h-106v-60h106zm-40-80h-66v-60h66zm-40-140v60h-26v-60zm-46-120v20h-30c-5.511719 0-10 4.488281-10 10s4.488281 10 10 10h30v20h-140v-20h30c5.511719 0 10-4.488281 10-10s-4.488281-10-10-10h-30v-20zm-40 180h-60v-20h60zm0 40h-60v-20h60zm0 40h-60v-20h60zm0 40h-60v-20h60zm-60 20h60v20h-60zm60-180h-60v-20h60zm-60 220h60v20h-60zm60-260h-60v-20h60zm-146 20h26v60h-26zm-40 80h66v60h-66zm-40 80h106v60h-106zm-40 80h146v60h-146zm166-280h20v340h-20zm40 320h60v20h-60zm80-320h20v340h-20zm186 340h-146v-60h146zm0 0"/><path d="m256 60c5.511719 0 10-4.488281 10-10s-4.488281-10-10-10-10 4.488281-10 10 4.488281 10 10 10zm0 0"/></svg>