<svg height="512pt" viewBox="0 -116 512.00159 512" width="512pt" xmlns="http://www.w3.org/2000/svg"><path d="m461.835938 82.046875c-46.34375-36.550781-96.929688-59.480469-150.359376-68.15625-18.371093-2.984375-36.894531-4.246094-55.472656-3.804687-18.582031-.441407-37.105468.820312-55.476562 3.804687-53.429688 8.675781-104.019532 31.605469-150.363282 68.15625-46.003906 36.285156-53.597656 102.632813-16.957031 148.191406 21.027344 26.144531 52.054688 39.761719 83.371094 39.761719 23.257813.003906 46.675781-7.503906 66.28125-22.96875 41.179687-32.476562 104.972656-32.582031 146.285156 0 19.609375 15.464844 43.023438 22.972656 66.277344 22.96875 31.316406 0 62.347656-13.617188 83.375-39.761719 36.640625-45.558593 29.046875-111.90625-16.960937-148.191406zm0 0" fill="#dff6fc"/><path d="m501.992188 260h-40.90625c9.503906-6.433594 18.113281-14.308594 25.5-23.496094 19.382812-24.09375 28.140624-54.230468 24.671874-84.851562-3.480468-30.710938-18.832031-58.21875-43.230468-77.460938-47.6875-37.613281-99.824219-61.222656-154.949219-70.171875-18.78125-3.050781-37.980469-4.375-57.078125-3.9374998-19.09375-.4375002-38.296875.8867188-57.078125 3.9374998-55.125 8.949219-107.257813 32.558594-154.949219 70.171875-24.398437 19.242188-39.75 46.75-43.230468 77.460938-3.46875 30.621094 5.292968 60.753906 24.671874 84.851562 7.390626 9.1875 15.996094 17.0625 25.503907 23.496094h-.910157c-5.507812 0-10 4.488281-10 10s4.492188 10 10 10h451.980469c5.511719 0 10-4.488281 10-10 .003907-5.507812-4.488281-10-9.996093-10zm-385.410157 0c-29.617187 0-57.167969-13.132812-75.582031-36.027344-16.007812-19.90625-23.246094-44.789062-20.382812-70.070312 2.875-25.363282 15.566406-48.09375 35.742187-64.003906 44.992187-35.484376 94.035156-57.738282 145.769531-66.136719 17.648438-2.867188 35.695313-4.101563 53.636719-3.675781.15625.003906.316406.003906.472656 0 17.945313-.429688 35.988281.808593 53.636719 3.675781 51.734375 8.398437 100.777344 30.652343 145.769531 66.136719 20.175781 15.910156 32.871094 38.640624 35.742188 64.003906 2.867187 25.28125-4.375 50.164062-20.382813 70.066406-18.414062 22.898438-45.964844 36.03125-75.578125 36.03125-22.039062 0-42.816406-7.199219-60.085937-20.820312-21.710938-17.121094-49.875-26.546876-79.324219-26.546876-.019531 0-.046875 0-.066406 0-29.4375.015626-57.59375 9.441407-79.28125 26.546876-17.273438 13.621093-38.050781 20.820312-60.082031 20.820312zm65.441407 0c2.386718-1.617188 4.738281-3.3125 7.027343-5.117188 37.542969-29.605468 96.359375-29.609374 133.902344 0 2.289063 1.804688 4.640625 3.5 7.027344 5.117188zm0 0"/><path d="m10.011719 260c-5.507813 0-10.0000002 4.492188-10.0000002 10 0 5.511719 4.4921872 10 10.0000002 10 5.511719 0 10-4.488281 10-10 0-5.507812-4.488281-10-10-10zm0 0"/><path d="m343.476562 215.859375c7.550782 5.972656 15.992188 10.550781 25.070313 13.640625 8.769531 2.992188 17.929687 4.5 27.21875 4.5h.039063c9.980468 0 19.78125-1.730469 29.128906-5.128906 5.179687-1.890625 7.863281-7.640625 5.972656-12.820313-1.433594-3.941406-5.210938-6.578125-9.390625-6.578125-1.171875 0-2.320313.199219-3.421875.609375-7.160156 2.597657-14.660156 3.917969-22.289062 3.917969-14.65625-.007812-28.464844-4.789062-39.945313-13.839844-1.78125-1.410156-3.921875-2.148437-6.191406-2.148437-3.078125 0-5.9375 1.390625-7.847657 3.808593-3.421874 4.332032-2.671874 10.632813 1.65625 14.039063zm0 0"/><path d="m447.382812 204.300781c1.769532 1.441407 4 2.230469 6.28125 2.230469h.007813c3.019531 0 5.859375-1.351562 7.761719-3.699219.007812 0 .007812 0 .007812-.011719 1.679688-2.070312 2.460938-4.679687 2.179688-7.339843-.277344-2.648438-1.578125-5.039063-3.648438-6.71875-1.777344-1.441407-4.007812-2.230469-6.289062-2.230469-3.039063 0-5.871094 1.351562-7.78125 3.699219-3.46875 4.289062-2.808594 10.601562 1.480468 14.070312zm0 0"/></svg>