<svg height="511pt" viewBox="1 -30 511.99904 511" width="511pt" xmlns="http://www.w3.org/2000/svg"><g fill="#98a1b3"><path d="m160 440.5h-100v-40h100zm0 0"/><path d="m160 400.5h-100v-40h100zm0 0"/><path d="m160 360.5h-100v-40h100zm0 0"/><path d="m452 440.5h-100v-40h100zm0 0"/><path d="m452 400.5h-100v-40h100zm0 0"/><path d="m452 360.5h-100v-40h100zm0 0"/></g><path d="m502 320.5h-492v-40h492zm0 0" fill="#b0e7f8"/><path d="m150 280.5h-80v-160h80zm0 0" fill="#ffd89e"/><path d="m70 80.5h80v40h-80zm0 0" fill="#f9f9f9"/><path d="m70 80.5h80l-40-70zm0 0" fill="#78d0a9"/><path d="m442 280.5h-80v-160h80zm0 0" fill="#ffd89e"/><path d="m362 80.5h80v40h-80zm0 0" fill="#f9f9f9"/><path d="m362 80.5h80l-40-70zm0 0" fill="#78d0a9"/><path d="m510.105469 274.644531c-.546875-.828125-58.105469-81.359375-58.105469-154.144531 0 0 0-39.964844 0-39.96875v-.03125c0-1.699219-.449219-3.417969-1.285156-4.894531-.011719-.023438-.019532-.046875-.03125-.066407l-40-70c-1.78125-3.117187-5.09375-5.039062-8.683594-5.039062s-6.902344 1.921875-8.683594 5.039062l-40 70c-.011718.019532-.019531.042969-.03125.066407-.832031 1.476562-1.285156 3.195312-1.285156 4.894531v.035156 9.964844h-56c-5.511719 0-10 4.488281-10 10 0 5.507812 4.488281 10 10 10h56v20h-192v-20h56c5.511719 0 10-4.492188 10-10 0-5.511719-4.488281-10-10-10h-56s0-9.964844 0-9.96875v-.03125c0-1.726562-.460938-3.460938-1.316406-4.960938l-40-70c-1.78125-3.117187-5.09375-5.039062-8.683594-5.039062s-6.902344 1.921875-8.683594 5.039062l-40 70c-.011718.019532-.019531.042969-.03125.066407-.832031 1.476562-1.285156 3.195312-1.285156 4.894531v.035156 39.964844c0 72.699219-57.382812 153.140625-58.105469 154.140625-1.1875 1.652344-1.8593748 3.683594-1.8867185 5.714844 0 .046875-.0078125.09375-.0078125.144531v40c0 5.523438 4.476562 10 10 10h40v110c0 5.523438 4.476562 10 10 10h100c5.523438 0 10-4.476562 10-10v-31.011719c40-6.042969 71.445312-38.507812 75.941406-78.988281h20.117188c4.496094 40.480469 35.941406 72.945312 75.941406 78.988281v31.011719c0 5.523438 4.476562 10 10 10h100c5.523438 0 10-4.476562 10-10v-110h40c5.523438 0 10-4.476562 10-10v-40c0-.058594 0-3-1.894531-5.855469zm-26.710938-4.144531h-31.394531v-60.921875c10.445312 25.488281 22.800781 47.148437 31.394531 60.921875zm-111.394531-140h60v140h-60zm0-40h60v20h-60zm30-59.84375 22.769531 39.84375h-45.539062zm-50 119.84375v120h-192v-120zm-212-40h-60v-20h60zm-60 20h60v140h-60zm30-99.84375 22.769531 39.84375h-45.539062zm-50 239.84375h-31.394531c8.59375-13.773438 20.949219-35.433594 31.394531-60.921875zm10 100h80v20h-80zm80-20h-80v-20h80zm0 80h-80v-20h80zm20-41.320312v-58.679688h55.773438c-4.230469 29.429688-26.828126 53-55.773438 58.679688zm116.226562-58.679688h55.773438v58.679688c-28.945312-5.679688-51.542969-29.25-55.773438-58.679688zm155.773438 60h-80v-20h80zm0 40h-80v-20h80zm0-80h-80v-20h80zm50-40h-472v-20h472zm0 0"/><path d="m120 240.5c0 5.523438-4.476562 10-10 10s-10-4.476562-10-10 4.476562-10 10-10 10 4.476562 10 10zm0 0"/><path d="m120 160.5c0 5.523438-4.476562 10-10 10s-10-4.476562-10-10 4.476562-10 10-10 10 4.476562 10 10zm0 0"/><path d="m120 200.5c0 5.523438-4.476562 10-10 10s-10-4.476562-10-10 4.476562-10 10-10 10 4.476562 10 10zm0 0"/><path d="m412 240.5c0 5.523438-4.476562 10-10 10s-10-4.476562-10-10 4.476562-10 10-10 10 4.476562 10 10zm0 0"/><path d="m412 200.5c0 5.523438-4.476562 10-10 10s-10-4.476562-10-10 4.476562-10 10-10 10 4.476562 10 10zm0 0"/><path d="m412 160.5c0 5.523438-4.476562 10-10 10s-10-4.476562-10-10 4.476562-10 10-10 10 4.476562 10 10zm0 0"/><path d="m256 110.5c5.511719 0 10-4.492188 10-10 0-5.511719-4.488281-10-10-10s-10 4.488281-10 10c0 5.507812 4.488281 10 10 10zm0 0"/></svg>