<svg height="512pt" viewBox="0 -31 512 512" width="512pt" xmlns="http://www.w3.org/2000/svg"><path d="m422 400h-40v-310h40zm0 0" fill="#ff6977"/><path d="m452 440h-100v-40h100zm0 0" fill="#98a1b3"/><g fill="#ff6977"><path d="m502 340h-80v-40h80zm0 0"/><path d="m382 340h-252v-40h252zm0 0"/><path d="m90 90h40v310h-40zm0 0"/></g><path d="m60 400h100v40h-100zm0 0" fill="#98a1b3"/><path d="m10 300h80v40h-80zm0 0" fill="#ff6977"/><path d="m402 20c5.511719 0 10-4.488281 10-10s-4.488281-10-10-10-10 4.488281-10 10 4.488281 10 10 10zm0 0"/><path d="m110 20c5.511719 0 10-4.488281 10-10s-4.488281-10-10-10-10 4.488281-10 10 4.488281 10 10 10zm0 0"/><path d="m505.601562 217.316406c-13.640624-5.265625-26.023437-13.007812-36.800781-23.007812-23.386719-21.703125-36.800781-52.429688-36.800781-84.308594v-20c0-5.523438-4.476562-10-10-10h-10v-30c0-5.511719-4.488281-10-10-10s-10 4.488281-10 10v30h-10c-5.523438 0-10 4.476562-10 10v20c0 62.238281-51.308594 114.746094-113.664062 116-64.144532 1.292969-118.335938-51.996094-118.335938-116v-20c0-5.523438-4.476562-10-10-10h-10v-30c0-5.511719-4.488281-10-10-10s-10 4.488281-10 10v30h-10c-5.523438 0-10 4.476562-10 10v20c0 31.878906-13.414062 62.605469-36.800781 84.3125-10.777344 10-23.160157 17.738281-36.800781 23.003906-3.855469 1.488282-6.398438 5.199219-6.398438 9.328125v113.355469c0 5.523438 4.476562 10 10 10h70v40h-20c-5.523438 0-10 4.476562-10 10v40c0 5.523438 4.476562 10 10 10h100c5.523438 0 10-4.476562 10-10v-40c0-5.523438-4.476562-10-10-10h-20v-40h232v40h-20c-5.523438 0-10 4.476562-10 10v40c0 5.523438 4.476562 10 10 10h100c5.523438 0 10-4.476562 10-10v-40c0-5.523438-4.476562-10-10-10h-20v-40h70c5.523438 0 10-4.476562 10-10v-113.355469c0-4.128906-2.542969-7.839843-6.398438-9.328125zm-13.601562 72.683594h-20v-67.730469c6.335938 4.242188 13.011719 7.929688 20 11.046875zm-40-84.097656v84.097656h-20v-109.363281c5.601562 9.132812 12.300781 17.632812 20 25.265625zm-80 84.097656h-20v-83.683594c7.699219-7.679687 14.398438-16.226562 20-25.402344zm-40 0h-20v-56.03125c6.988281-3.15625 13.664062-6.886719 20-11.164062zm-40 0h-26v-44.359375c8.828125-.640625 17.515625-2.128906 26-4.457031zm-46 0h-26v-48.816406c8.484375 2.328125 17.171875 3.816406 26 4.457031zm-46 0h-20v-67.195312c6.335938 4.277343 13.011719 8.007812 20 11.164062zm-40-83.683594v83.683594h-20v-109.085938c5.601562 9.175782 12.300781 17.722657 20 25.402344zm-80 83.683594h-20v-84.097656c7.699219-7.636719 14.398438-16.132813 20-25.265625zm-60-56.683594c6.988281-3.117187 13.664062-6.804687 20-11.046875v67.730469h-20zm0 96.683594v-20h60v20zm130 100h-80v-20h80zm-50-40v-290h20v290zm40-60v-20h232v20zm302 100h-80v-20h80zm-50-40v-290h20v290zm100-60h-60v-20h60zm0 0"/></svg>