<svg height="511pt" viewBox="0 -100 511.99949 511" width="511pt" xmlns="http://www.w3.org/2000/svg"><path d="m140.984375 175.5s-60-37-131-37c54 54 47 102 47 102h84zm0 0" fill="#f9f9f9"/><path d="m241.984375 145.234375s-87.9375-78.199219-192-78.199219c79.144531 79.144532 68.882813 173.464844 68.882813 173.464844h123.117187zm0 0" fill="#dff6fc"/><path d="m350.535156 117.394531s-103.632812-106.894531-238.105468-106.894531c102.273437 102.273438 79.015624 250 79.015624 250h159.089844zm0 0" fill="#f9f9f9"/><path d="m9.984375 300.5v-60h186l20 20h286v40zm0 0" fill="#c68a65"/><path d="m399.203125 70.515625c-91.992187 1.351563-157.71875 189.984375-157.71875 189.984375h146.699219c-55.375-96.0625 3.492187-179.9375 11.019531-189.984375zm0 0" fill="#dff6fc"/><path d="m441.484375 169.167969s-41.285156-50.785157-41.285156-98.667969c-.332031 0-.664063.011719-.992188.015625-7.527343 10.046875-66.398437 93.921875-11.023437 189.984375h53.300781zm0 0" fill="#98a1b3"/><path d="m480.199219 150.5c-1.019531 0-2.03125.03125-3.042969.054688-33.964844 15.945312-72.960938 48.707031-38.882812 109.945312h63.710937s-45-33-21.785156-110zm0 0" fill="#98a1b3"/><path d="m477.15625 150.554688c-90.730469 2.375-147.171875 109.945312-147.171875 109.945312h108.289063c-34.078126-61.238281 4.914062-94 38.882812-109.945312zm0 0" fill="#f9f9f9"/><path d="m508.378906 252.828125c-.054687-.042969-.109375-.085937-.164062-.128906-.09375-.074219-.179688-.152344-.277344-.21875-1.597656-1.210938-38.894531-30.386719-18.179688-99.09375.914063-3.027344.339844-6.3125-1.546874-8.851563-1.886719-2.539062-4.863282-4.035156-8.027344-4.035156-1.003906 0-1.996094.023438-2.992188.050781l-.308594.007813c-12.894531.335937-25.765624 2.71875-38.476562 7.039062-11.554688-17.789062-28.21875-48.410156-28.21875-77.097656 0-5.523438-4.476562-10-9.996094-10-.285156 0-.570312.003906-.851562.011719l-.289063.003906h-.003906c-22.046875.324219-43.847656 9.863281-65.234375 28.449219-11.75-9.65625-27.492188-21.542969-46.601562-33.496094-40.082032-25.074219-102.941407-54.96875-174.769532-54.96875-4.046875 0-7.691406 2.4375-9.238281 6.171875-1.550781 3.738281-.691406 8.039063 2.164063 10.898437 19.027343 19.03125 33.453124 39.746094 44.382812 60.511719-28.703125-11.652343-63.183594-21.046875-99.753906-21.046875-4.042969 0-7.6875 2.4375-9.238282 6.171875-1.546874 3.734375-.691406 8.039063 2.167969 10.898438 22.46875 22.46875 37.246094 46.214843 46.972657 67.863281-22.539063-7.355469-50.199219-13.46875-79.898438-13.46875-4.042969 0-7.691406 2.4375-9.238281 6.171875-1.546875 3.738281-.6914065 8.039063 2.167969 10.898437 25.851562 25.855469 36.476562 49.9375 40.835937 65.589844 2.207031 7.914063 3.078125 14.535156 3.378906 19.339844h-37.144531c-5.523438 0-10 4.476562-10 10v60c0 5.523438 4.476562 10 10 10h491.96875c5.519531 0 9.996094-4.476562 9.996094-10v-39.183594c.265625-3.214844-1.039063-6.390625-3.585938-8.488281zm-70.992187-51.199219c4.667969-14.46875 16.207031-25.417968 28.308593-33.332031-5.5 32.03125.679688 55.453125 7.617188 70.308594 2.09375 4.484375 4.363281 8.445312 6.636719 11.894531h-35.664063c-9.132812-18.328125-11.457031-34.75-6.898437-48.871094zm-15.042969 48.871094h-74.632812c13.851562-21.109375 43.277343-59.628906 83.878906-78.683594-6.074219 7.339844-10.527344 15.269532-13.238282 23.671875-5.414062 16.78125-4.0625 35.230469 3.992188 55.011719zm-2.707031-95.039062c-15.269531 7.621093-30.183594 18.085937-44.480469 31.28125-2.710938-37.140626 8.695312-68.542969 18.765625-88.371094 5.65625 22.234375 16.6875 42.789062 25.714844 57.089844zm-40.953125-70.980469c-13.238282 24.503906-30.445313 68.507812-21.425782 120.574219-16.796874 18.9375-28.074218 36.816406-33.125 45.445312h-68.164062c6.8125-17.167969 20.253906-48.550781 38.636719-79.652344 20.179687-34.148437 49.878906-73.867187 84.078125-86.367187zm-102.539063-12.339844c17.4375 10.875 32.066407 21.816406 43.1875 30.859375-5.082031 5.4375-10.140625 11.390625-15.171875 17.863281-.976562-.953125-2-1.925781-3.121094-2.945312-11.867187-10.6875-29.875-22.976563-55.066406-37.558594-1.519531-.878906-3.238281-1.339844-4.988281-1.339844-3.570313 0-6.890625 1.910157-8.667969 5-1.332031 2.308594-1.691406 5-1 7.582031.691406 2.578126 2.347656 4.738282 4.660156 6.078126 14.585938 8.421874 26.988282 16.28125 36.855469 23.359374 5.890625 4.21875 10.867188 8.160157 14.789063 11.710938 1.714844 1.539062 3.265625 3.0625 4.613281 4.507812-5.03125 7.367188-10.035156 15.253907-15 23.675782-22.230469 37.667968-37.132813 74.730468-42.734375 89.566406h-14.371094l-16.558594-16.558594c.488282-15.730468.046876-37.066406-3.375-61.480468-5.859374-41.792969-21.855468-99.875-64.085937-150.8125 57.054687 5.511718 106.796875 29.753906 140.035156 50.492187zm-113.808593 33.53125c9.792968 24.980469 15.125 48.949219 17.964843 68.929687 3.101563 21.832032 3.644531 41.222657 3.316407 55.898438h-54.304688c.0625-10.578125-.789062-27.996094-5.429688-49.191406-5.976562-27.292969-19.496093-65.644532-50.058593-102.867188 32.628906 3.796875 63.058593 14.808594 88.511719 27.230469zm-128.761719 44.210937c25.175781 2.894532 48.042969 9.898438 65.738281 16.816407 2.03125 6.453125 3.621094 12.53125 4.859375 18.09375 4.425781 19.871093 5.183594 36.226562 5.128906 45.707031h-42.113281c-.777344-15.808594-6.320312-46.222656-33.613281-80.617188zm458.394531 140.617188h-471.96875v-40h171.847656l17.066406 17.070312c1.875 1.875 4.421876 2.929688 7.074219 2.929688h275.980469zm0 0"/><path d="m205.71875 79.871094c3.796875 0 7.21875-2.101563 8.925781-5.480469 2.492188-4.921875.511719-10.949219-4.40625-13.441406-1.410156-.71875-2.929687-1.078125-4.5-1.078125-3.800781 0-7.222656 2.097656-8.929687 5.488281-2.492188 4.921875-.523438 10.941406 4.398437 13.441406 1.421875.707031 2.941407 1.070313 4.511719 1.070313zm0 0"/></svg>