<?xml version="1.0"?>
<svg xmlns="http://www.w3.org/2000/svg" xmlns:xlink="http://www.w3.org/1999/xlink" version="1.1" viewBox="0 0 192 192" width="50px" height="50px"><g fill="none" fill-rule="nonzero" stroke="none" stroke-width="1" stroke-linecap="butt" stroke-linejoin="miter" stroke-miterlimit="10" stroke-dasharray="" stroke-dashoffset="0" font-family="none" font-weight="none" font-size="none" text-anchor="none" style="mix-blend-mode: normal"><path d="M0,192v-192h192v192z" fill="none"/><g fill="#ffffff"><path d="M96,7.68c-48.72447,0 -88.32,39.59553 -88.32,88.32c0,48.72447 39.59553,88.32 88.32,88.32c48.72447,0 88.32,-39.59553 88.32,-88.32c0,-48.72447 -39.59553,-88.32 -88.32,-88.32zM96,15.36c44.57217,0 80.64,36.06783 80.64,80.64c0,0.27406 -0.01978,0.54408 -0.0225,0.8175c-2.45612,-0.22671 -5.29395,-0.44204 -8.9025,-0.57c-5.10228,-0.18093 -11.53352,-0.12851 -18.825,0.2325c0.27039,-1.88294 0.45991,-3.79247 0.465,-5.7525c0.37183,-7.19086 -2.04292,-13.91804 -5.97,-19.86c0.94874,-3.27831 2.06171,-7.44906 2.34,-12.18c0.31718,-5.39243 -0.1483,-11.37192 -4.4775,-15.4125l-1.11,-1.035h-1.515c-10.30299,0 -17.35521,4.31313 -21.6675,7.7325c-6.22657,-2.41018 -13.22807,-3.8925 -20.955,-3.8925c-7.77075,0 -14.83958,1.50304 -21.3225,3.9075c-4.30984,-3.42101 -11.36825,-7.7475 -21.6825,-7.7475h-1.5075l-1.11,1.0275c-4.21703,3.91581 -4.60555,9.73126 -4.3425,15.0975c0.23197,4.73198 1.28045,9.03522 2.2125,12.4725c-3.99346,6.05796 -6.39,12.95905 -6.39,19.785c0,1.96465 0.1827,3.88017 0.45,5.7675c-6.93412,-0.32162 -13.11544,-0.38359 -18.0225,-0.21c-3.60847,0.12765 -6.4465,0.34114 -8.9025,0.57c-0.00229,-0.25091 -0.0225,-0.49855 -0.0225,-0.75c0,-44.57217 36.06783,-80.64 80.64,-80.64zM55.2825,50.4225c7.74752,0.73415 13.57636,4.19371 16.275,6.5925l1.8,1.59l2.22,-0.9075c6.07277,-2.50055 12.84612,-3.9375 20.4225,-3.9375c7.57638,0 14.35159,1.44413 19.965,3.9l2.25,0.99l1.8375,-1.635c2.69956,-2.39961 8.53829,-5.86023 16.29,-6.5925c1.03064,1.70873 1.92625,4.13879 1.71,7.815c-0.25882,4.39957 -1.43565,9.19159 -2.325,12.0375l-0.5775,1.8525l1.1475,1.5675c3.79958,5.18125 5.73688,10.7886 5.4075,16.7175l-0.0075,0.105v0.105c0,9.58255 -3.45067,17.25208 -10.8,22.935c-7.34916,5.68294 -18.95128,9.3225 -35.28,9.3225c-16.32873,0 -27.93817,-3.63958 -35.2875,-9.3225c-7.34934,-5.68292 -10.7925,-13.35246 -10.7925,-22.935c0,-5.62447 2.03104,-11.81188 5.7825,-16.9275l1.125,-1.53l-0.54,-1.8225c-0.88984,-3.02544 -1.98055,-7.92674 -2.1975,-12.3525c-0.18044,-3.68111 0.69079,-6.00781 1.575,-7.5675zM34.1175,99.9225c2.7137,0.03466 5.82411,0.18114 8.94,0.3375c0.29771,1.1973 0.63718,2.37513 1.05,3.525c-12.70025,0.26783 -22.20133,1.54495 -28.0575,2.64c-0.24761,-1.92134 -0.44482,-3.85852 -0.555,-5.82c4.32787,-0.41071 10.42883,-0.78715 18.6225,-0.6825zM157.8825,99.9825c8.18801,-0.10397 14.2867,0.27282 18.615,0.6825c-0.11004,1.93338 -0.30391,3.84315 -0.5475,5.7375c-6.06544,-1.11273 -15.82325,-2.38962 -28.8525,-2.595c0.40437,-1.12714 0.74107,-2.28474 1.035,-3.4575c3.43726,-0.18424 6.79063,-0.32992 9.75,-0.3675zM45.7425,107.595c2.29148,4.59186 5.56572,8.69179 9.8925,12.0375c5.91569,4.57434 13.60643,7.7704 22.995,9.48c-1.22827,1.26202 -2.3454,2.64786 -3.3375,4.11l-0.2325,-0.2025c0.02112,-0.02419 -1.90896,0.94177 -4.7925,1.2c-2.88354,0.25824 -6.4405,0.18 -9.5925,0.18c-4.704,0 -6.77595,-2.22255 -10.0875,-6.27c-1.83377,-2.47153 -4.06935,-4.47305 -6.24,-5.9925c-2.22262,-1.55584 -4.11866,-2.65395 -6.465,-3.045l-0.315,-0.0525h-0.3225c-1.792,0 -3.52602,0.12975 -5.145,1.98c-0.80949,0.92513 -1.36742,2.63783 -1.005,4.0875c0.36242,1.44967 1.27949,2.34049 2.1,2.8875c5.24822,3.49881 6.17573,10.4236 9.465,16.5825c3.0717,6.12067 9.70094,9.0225 16.4775,9.0225h9.9825v18.4425c-27.00361,-9.53164 -47.36763,-33.01678 -52.485,-61.8225c5.87867,-1.10726 15.72291,-2.43847 29.1075,-2.625zM145.47,107.625c13.68087,0.1171 23.80123,1.44659 29.9025,2.5725c-5.11056,28.81627 -25.48166,52.3108 -52.4925,61.845v-19.98c0,-6.08474 -1.99817,-12.79448 -5.475,-18.39c-1.0556,-1.69886 -2.29737,-3.30551 -3.6825,-4.7475c8.89044,-1.75634 16.19378,-4.89753 21.8775,-9.2925c4.3174,-3.33846 7.58434,-7.42607 9.87,-12.0075zM91.005,130.9425h10.755c3.12123,0 6.45282,2.48752 9.12,6.78c2.66718,4.29249 4.32,10.05674 4.32,14.34v22.2675c-6.15395,1.50066 -12.58065,2.31 -19.2,2.31c-6.61935,0 -13.04605,-0.80934 -19.2,-2.31v-22.2675c0,-4.18844 1.79646,-9.93908 4.6425,-14.25c2.84604,-4.31092 6.44127,-6.87 9.5625,-6.87zM47.265,135.48c3.32457,3.44835 7.3495,6.6 13.41,6.6c2.992,0 6.72654,0.1078 10.275,-0.21c0.01262,-0.00113 0.02488,-0.00637 0.0375,-0.0075c-0.46751,1.34401 -0.81632,2.69633 -1.11,4.0575h-10.74c-4.736,0 -8.08174,-1.71099 -9.6225,-4.7925l-0.03,-0.0525l-0.0225,-0.045c-0.6313,-1.17262 -1.46002,-3.51733 -2.1975,-5.55z"/></g></g></svg>
