<?xml version="1.0"?>
<svg xmlns="http://www.w3.org/2000/svg" xmlns:xlink="http://www.w3.org/1999/xlink" version="1.1" viewBox="0 0 192 192" width="50px" height="50px"><g fill="none" fill-rule="nonzero" stroke="none" stroke-width="1" stroke-linecap="butt" stroke-linejoin="miter" stroke-miterlimit="10" stroke-dasharray="" stroke-dashoffset="0" font-family="none" font-weight="none" font-size="none" text-anchor="none" style="mix-blend-mode: normal"><path d="M0,192v-192h192v192z" fill="none"/><g fill="#ffffff"><path d="M34.56,15.36c-10.55814,0 -19.2,8.64186 -19.2,19.2v122.88c0,10.55814 8.64186,19.2 19.2,19.2h122.88c10.55814,0 19.2,-8.64186 19.2,-19.2v-122.88c0,-10.55814 -8.64186,-19.2 -19.2,-19.2zM34.56,23.04h122.88c6.40698,0 11.52,5.11302 11.52,11.52v122.88c0,6.40698 -5.11302,11.52 -11.52,11.52h-122.88c-6.40698,0 -11.52,-5.11302 -11.52,-11.52v-122.88c0,-6.40698 5.11302,-11.52 11.52,-11.52zM53.76,42.285c-4.20565,0 -7.9902,1.25706 -10.7925,3.615c-2.8023,2.35794 -4.5225,5.88052 -4.5225,9.6525c0,7.16997 6.21913,12.7596 14.13,13.3125c0.00499,0.00251 0.00999,0.00501 0.015,0.0075c0.37696,0.12848 0.77179,0.19682 1.17,0.2025c8.72836,0 15.315,-6.11404 15.315,-13.5225c-0.0007,-0.06756 -0.0032,-0.13508 -0.0075,-0.2025c-0.39072,-7.29689 -6.8962,-13.065 -15.3075,-13.065zM53.76,49.875c5.34617,0 7.45716,2.38755 7.6875,5.775c-0.04666,3.28798 -2.08075,5.835 -7.6875,5.835c-5.31996,0 -7.725,-2.72446 -7.725,-5.9325c0,-1.60402 0.5853,-2.8128 1.815,-3.8475c1.22969,-1.0347 3.20365,-1.83 5.91,-1.83zM42.24,72.96c-2.12069,0.00021 -3.83979,1.71931 -3.84,3.84v72.96c0.00021,2.12069 1.71931,3.83979 3.84,3.84h23.04c2.12069,-0.00021 3.83979,-1.71931 3.84,-3.84v-22.5225v-50.4375c-0.00021,-2.12069 -1.71931,-3.83979 -3.84,-3.84zM76.8,72.96c-2.12069,0.00021 -3.83979,1.71931 -3.84,3.84v72.96c0.00021,2.12069 1.71931,3.83979 3.84,3.84h23.04c2.12069,-0.00021 3.83979,-1.71931 3.84,-3.84v-38.4c0,-3.18592 0.86935,-6.35507 2.4,-8.43c1.53065,-2.07494 3.46163,-3.32018 7.1325,-3.255c3.78526,0.06509 5.7891,1.36181 7.305,3.3975c1.5159,2.03569 2.3625,5.0875 2.3625,8.2875v38.4c0.00021,2.12069 1.71931,3.83979 3.84,3.84h23.04c2.12069,-0.00021 3.83979,-1.71931 3.84,-3.84v-41.235c0,-11.37231 -3.36849,-20.38037 -9.1425,-26.475c-5.77401,-6.09463 -13.80468,-9.09 -22.2975,-9.09c-8.07175,0 -14.21432,2.70677 -18.48,5.4675v-1.6275c-0.00021,-2.12069 -1.71931,-3.83979 -3.84,-3.84zM46.08,80.64h15.36v46.5975v18.6825h-15.36zM80.64,80.64h15.36v5.9925c0.00049,1.65122 1.05642,3.11729 2.62239,3.64098c1.56597,0.52369 3.29141,-0.01224 4.28511,-1.33098c0,0 6.03021,-8.3025 19.2525,-8.3025c6.73278,0 12.50637,2.23711 16.725,6.69c4.21864,4.45289 7.035,11.3129 7.035,21.195v37.395h-15.36v-34.56c0,-4.48 -1.0734,-9.11191 -3.8775,-12.8775c-2.80409,-3.76559 -7.52026,-6.38749 -13.335,-6.4875c-5.84465,-0.1038 -10.63703,2.57263 -13.4475,6.3825c-2.81047,3.80986 -3.9,8.48842 -3.9,12.9825v34.56h-15.36z"/></g></g></svg>
