<svg height="512pt" viewBox="0 -93 512 512" width="512pt" xmlns="http://www.w3.org/2000/svg"><path d="m502 316h-492v-201.972656c0-15.460938 12.535156-27.996094 28-27.996094h5l23.351562-21.023438c8.335938-11.078124 21.410157-17.578124 35.277344-17.542968l15.445313.042968 24.757812-27.558593c12.234375-13.621094 33.71875-13.195313 45.40625.898437l22.824219 27.511719 88.472656 11.613281c8.984375 1.179688 17.816406 3.296875 26.363282 6.3125l48.632812 17.171875c11.519531 4.066407 23.558594 6.488281 35.757812 7.199219l92.710938 5.375zm0 0" fill="#78d0a9"/><path d="m502.578125 86.046875-92.710937-5.375c-11.261719-.652344-22.367188-2.890625-33.007813-6.644531l-48.632813-17.171875c-9.179687-3.242188-18.734374-5.527344-28.390624-6.796875l-84.578126-11.101563-20.320312-24.496093c-7.429688-8.957032-18.367188-14.222657-30-14.4531255-11.613281-.2343745-22.769531 4.6054685-30.546875 13.2617185l-21.765625 24.226563-10.96875-.027344c-.050781 0-.097656 0-.148438 0-16.535156 0-32.347656 7.71875-42.527343 20.71875l-19.820313 17.84375h-1.160156c-20.953125 0-38 17.046875-38 37.996094v201.972656c0 5.523438 4.476562 10 10 10h492c5.523438 0 10-4.476562 10-10v-219.96875c0-5.296875-4.132812-9.675781-9.421875-9.984375zm-10.578125 219.957031h-426.46875c9.554688-18.535156 26.957031-44.191406 45.914062-44.191406 23.507813 0 36.578126-5.90625 47.082032-10.648438 6.621094-2.992187 11.402344-5.152343 17.4375-5.152343 10.128906 0 27.351562 15.210937 36.339844 26.007812 3.523437 4.25 9.832031 4.839844 14.082031 1.3125 4.25-3.523437 4.835937-9.828125 1.3125-14.078125-2.824219-3.402344-28.257813-33.242187-51.734375-33.242187-10.34375 0-18.136719 3.519531-25.671875 6.925781-9.65625 4.363281-19.644531 8.875-38.847657 8.875-18.828124 0-36.613281 12.289062-52.855468 36.527344-7.121094 10.628906-12.300782 21.171875-15.210938 27.660156h-23.378906v-191.972656c0-9.921875 8.074219-17.996094 18-17.996094 9.015625 0 13.511719-3.582031 20.085938-9.621094 4.917968-4.515625 9.367187-9.511718 14.171874-14.144531 6.675782-6.429687 14.667969-12.480469 23.9375-14.363281 6.648438-1.347656 14.074219-.414063 20.878907-.394532 2.835937 0 5.542969-1.207031 7.4375-3.316406l24.757812-27.558594c3.890625-4.328124 9.480469-6.714843 15.273438-6.632812 5.816406.117188 11.285156 2.75 15 7.226562l11.808593 14.234376c-23.324218 8.351562-40.277343 29.222656-41.160156 30.324218-3.445312 4.308594-2.746094 10.582032 1.554688 14.035156 1.84375 1.480469 4.054687 2.199219 6.25 2.199219 3.019531 0 5.902344-1.375 7.800781-3.726562.207031-.253907 20.113281-24.644531 42.058594-26.183594.296875.070313.601562.125.90625.164063l88.46875 11.613281c8.277343 1.085937 16.464843 3.046875 24.335937 5.824219l48.632813 17.171874c12.410156 4.382813 25.367187 6.992188 38.507812 7.753907l83.292969 4.828125zm0 0"/><path d="m77.46875 119.519531c-1.152344-.414062-2.628906-.382812-3.601562-.265625-1.738282.214844-4.90625 1.09375-4.621094 3.390625l2.234375 18.132813-17.195313 2.121094s-2.214844-17.953126-2.234375-18.128907c-.285156-2.308593-3.59375-2.378906-5.3125-2.167969-1.769531.21875-4.914062 1.027344-4.621093 3.390626 0 0 5.527343 44.816406 5.570312 45.148437.28125 2.289063 3.628906 2.449219 5.320312 2.238281 1.722657-.210937 4.894532-1.183594 4.613282-3.460937l-2.460938-19.9375 17.195313-2.121094s2.441406 19.765625 2.460937 19.9375c.285156 2.304687 3.617188 2.445313 5.320313 2.234375 1.613281-.195312 4.894531-1.179688 4.613281-3.460938 0 0-5.53125-44.824218-5.570312-45.148437-.125-1.003906-.820313-1.585937-1.710938-1.902344zm0 0"/><path d="m129.382812 130.277344c-.453124-5.53125-2.421874-9.441406-5.90625-11.734375-3.484374-2.289063-7.964843-3.210938-13.4375-2.761719-5.476562.449219-9.730468 2.085938-12.769531 4.910156-3.042969 2.824219-4.332031 7.003906-3.878906 12.539063l1.59375 19.460937c.457031 5.535156 2.410156 9.445313 5.871094 11.738282 3.457031 2.292968 7.921875 3.210937 13.398437 2.761718 5.472656-.445312 9.742188-2.085937 12.808594-4.910156 3.0625-2.824219 4.367188-7.003906 3.914062-12.539062zm-15.78125 28.964844c-5.320312.433593-8.199218-2.019532-8.640624-7.367188l-1.59375-19.460938c-.4375-5.351562 2-8.242187 7.324218-8.679687 5.371094-.4375 8.277344 2.015625 8.714844 7.363281l1.59375 19.460938c.441406 5.347656-2.027344 8.242187-7.398438 8.683594zm0 0"/><path d="m171.769531 155.878906-18.78125.558594s-1.191406-40.019531-1.203125-40.363281c-.070312-2.347657-3.355468-2.703125-5.085937-2.652344-1.761719.054687-4.988281.589844-4.921875 2.949219 0 0 1.347656 45.148437 1.355468 45.472656.066407 2.136719 2.78125 2.789062 4.472657 2.738281 0 0 24.253906-.722656 24.398437-.726562 2.082032-.0625 2.9375-2.289063 2.882813-4.078125-.046875-1.679688-1.074219-3.957032-3.117188-3.898438zm0 0"/><path d="m213.539062 164.300781c.601563-.769531.9375-1.816406.984376-2.734375.097656-1.789062-.71875-4.03125-2.785157-4.144531l-18.757812-1.007813s2.148437-39.992187 2.164062-40.324218c.125-2.332032-3.113281-2.972656-4.847656-3.066406-1.761719-.09375-5.023437.179687-5.148437 2.527343 0 0-2.421876 45.0625-2.441407 45.425781-.113281 2.164063 2.507813 3.011719 4.230469 3.101563 0 0 24.171875 1.300781 24.371094 1.308594.949218.054687 1.695312-.40625 2.230468-1.085938zm0 0"/><path d="m229.78125 146.09375c.128906.207031.164062.519531.109375.933594 0 0-2.339844 17.335937-2.363281 17.476562-.300782 2.253906 2.894531 3.289063 4.578125 3.515625 1.71875.230469 5.035156.117188 5.34375-2.175781l2.359375-17.480469c.042968-.320312.183594-.609375.425781-.859375l19.074219-22.707031c.183594-.210937.296875-.503906.347656-.871094.140625-1.019531-.46875-1.996093-1.816406-2.929687-2.085938-1.445313-5.519532-2.757813-7.457032-.300782l-14.382812 18.46875s-8.828125-21.457031-8.890625-21.609374c-1.199219-2.910157-4.898437-2.558594-7.347656-1.699219-1.550781.546875-2.394531 1.328125-2.53125 2.34375-.03125.230469.003906.539062.109375.929687zm0 0"/><path d="m308.40625 177.535156 21.871094-41.136718c.144531-.261719.238281-.53125.28125-.808594.410156-2.625-3.789063-4.277344-5.753906-4.582032-1.324219-.207031-2.90625-.078124-3.550782 1.285157l-17.886718 35.597656-2.699219-25.074219c-.195313-1.730468-1.664063-2.8125-4.402344-3.242187-2.789063-.433594-4.542969.140625-5.257813 1.730469l-10.234374 23.050781s-6.105469-39.054688-6.152344-39.359375c-.476563-3.0625-5.402344-2.585938-7.417969-1.90625-1.480469.503906-2.296875 1.234375-2.449219 2.203125-.042968.277343-.035156.5625.023438.855469 0 0 8.203125 45.582031 8.253906 45.847656.46875 2.597656 3.742188 3.703125 5.992188 4.054687 2.125.335938 5.753906.3125 6.789062-2.050781l7.867188-17.898438s1.941406 19.394532 1.945312 19.433594c.257812 2.585938 3.710938 3.695313 5.839844 4.027344 3.546875.558594 5.863281-.117188 6.941406-2.027344zm0 0"/><path d="m339.699219 179.804688c3.164062 2.679687 7.492187 4.121093 12.980469 4.324218 5.488281.195313 9.921874-.925781 13.296874-3.371094 3.375-2.445312 5.167969-6.441406 5.367188-11.992187l.710938-19.515625c.199218-5.546875-1.292969-9.664062-4.484376-12.347656-3.191406-2.683594-7.53125-4.125-13.019531-4.328125-5.488281-.195313-9.910156.929687-13.261719 3.375-3.347656 2.445312-5.125 6.441406-5.324218 11.992187l-.710938 19.515625c-.199218 5.546875 1.28125 9.664063 4.445313 12.347657zm5.558593-11.988282.710938-19.511718c.191406-5.363282 2.957031-7.949219 8.292969-7.753907 5.386719.195313 7.980469 2.976563 7.789062 8.335938l-.707031 19.515625c-.195312 5.363281-2.988281 7.945312-8.375 7.75-5.335938-.191406-7.90625-2.96875-7.710938-8.335938zm0 0"/><path d="m387.46875 136.695312c-3.246094 2.585938-4.847656 6.65625-4.8125 12.207032l.121094 19.527344c.035156 5.554687 1.691406 9.601562 4.96875 12.148437 3.273437 2.546875 7.660156 3.800781 13.152344 3.765625 5.492187-.035156 9.875-1.34375 13.140624-3.933594 3.269532-2.585937 4.886719-6.65625 4.851563-12.207031l-.121094-19.527344c-.035156-5.554687-1.707031-9.601562-5.007812-12.148437s-7.699219-3.800782-13.191407-3.765625c-5.492187.035156-9.859374 1.347656-13.101562 3.933593zm21.289062 12.042969.125 19.527344c.03125 5.367187-2.644531 8.066406-8.035156 8.101563-5.339844.03125-8.023437-2.632813-8.058594-8l-.125-19.527344c-.03125-5.363282 2.617188-8.0625 7.957032-8.097656 5.390625-.035157 8.101562 2.632812 8.136718 7.996093zm0 0"/><path d="m431.640625 182.832031c.960937.570313 2.265625.78125 3.179687.761719l13.628907-.273438c5.488281-.109374 9.851562-1.480468 13.085937-4.113281 3.230469-2.632812 4.792969-6.726562 4.679688-12.277343l-.386719-19.105469c-.113281-5.550781-1.835937-9.574219-5.171875-12.074219-3.339844-2.5-7.753906-3.695312-13.242188-3.582031l-13.628906.273437c-1.621094.03125-4.371094.796875-4.332031 2.886719 0 0 .917969 45.199219.925781 45.554687.015625.890626.542969 1.519532 1.261719 1.949219zm15.933594-42.6875c5.390625-.109375 8.136719 2.519531 8.246093 7.882813l.386719 19.105468c.109375 5.367188-2.53125 8.101563-7.921875 8.210938l-8.003906.160156-.710938-35.199218zm0 0"/><path d="m462 265.007812h-20.039062c-5.511719 0-10 4.492188-10 10 0 5.507813 4.488281 10 10 10h20.039062c5.511719 0 10-4.492187 10-10 0-5.507812-4.480469-9.988281-9.980469-10-.007812 0-.007812 0-.019531 0zm0 0"/><path d="m281.640625 256.46875c-5.101563 0-9.457031 3.980469-9.949219 9.039062-.570312 5.816407 4.132813 10.957032 9.957032 10.957032 2.3125 0 4.5625-.808594 6.351562-2.277344 4.261719-3.5 4.871094-9.820312 1.359375-14.070312-1.898437-2.316407-4.71875-3.648438-7.71875-3.648438zm0 0"/><path d="m403.492188 264.816406c-6.921876 0-13.859376-7.984375-18.269532-12.382812-5.988281-5.972656-11.605468-12.445313-18.761718-17.085938-17.4375-11.304687-37.402344-7.398437-55.203126.65625-5.007812 2.289063-7.226562 8.226563-4.941406 13.246094 2.136719 4.683594 8.328125 7.199219 13.253906 4.941406 11.488282-5.300781 24.019532-9.023437 35.621094-2.003906 6.757813 4.089844 12.011719 10.179688 17.503906 15.851562 7.496094 7.742188 16.832032 14.859376 27.742188 16.546876.511719.070312 1.03125.109374 1.542969.109374 4.695312 0 9.101562-3.542968 9.867187-8.46875.84375-5.449218-2.90625-10.558593-8.355468-11.410156zm0 0"/><path d="m269.089844 223.082031-43-32.996093c-4.382813-3.363282-10.660156-2.535157-14.023438 1.84375-3.363281 4.378906-2.535156 10.65625 1.84375 14.019531l43 32.996093c1.816406 1.390626 3.957032 2.066407 6.082032 2.066407 3.003906 0 5.972656-1.347657 7.941406-3.914063 3.363281-4.378906 2.535156-10.65625-1.84375-14.015625zm0 0"/></svg>