<svg height="496pt" viewBox="-8 0 496 496" width="496pt" xmlns="http://www.w3.org/2000/svg"><path d="m256 16h-8v-8c0-4.417969-3.582031-8-8-8s-8 3.582031-8 8v8h-8c-4.417969 0-8 3.582031-8 8s3.582031 8 8 8h8v32c0 4.417969 3.582031 8 8 8s8-3.582031 8-8v-32h8c4.417969 0 8-3.582031 8-8s-3.582031-8-8-8zm0 0" fill="#6a5949"/><path d="m224 32h8v24h8v-32h-24c0 4.417969 3.582031 8 8 8zm0 0" fill="#5d4e40"/><path d="m104 184c-4.417969 0-8-3.582031-8-8v-40c0-4.417969 3.582031-8 8-8s8 3.582031 8 8v40c0 4.417969-3.582031 8-8 8zm0 0" fill="#746250"/><path d="m384 184c-4.417969 0-8-3.582031-8-8v-40c0-4.417969 3.582031-8 8-8s8 3.582031 8 8v40c0 4.417969-3.582031 8-8 8zm0 0" fill="#746250"/><path d="m40 488v-304l112-32h176l112 32v304zm0 0" fill="#b69b88"/><path d="m184 96-10.054688 25.144531c-3.589843 8.972657-12.28125 14.855469-21.945312 14.855469v80h176v-80c-9.664062 0-18.355469-5.882812-21.945312-14.855469l-10.054688-25.144531zm0 0" fill="#b49a86"/><path d="m328 152 112 32 16-8 16 8v32h-144zm0 0" fill="#816d58"/><path d="m472 184-16-8-16 8-96-27.433594v43.433594h128zm0 0" fill="#8d7761"/><path d="m152 152-112 32-16-8-16 8v32h144zm0 0" fill="#816d58"/><path d="m8 184v16h128v-43.433594l-96 27.433594-16-8zm0 0" fill="#8d7761"/><path d="m40 368h400v16h-400zm0 0" fill="#998372"/><path d="m8 344h464v32h-464zm0 0" fill="#ac9380"/><path d="m8 216h32v272h-32zm0 0" fill="#9a826a"/><path d="m24 216h16v272h-16zm0 0" fill="#917b64"/><path d="m440 216h32v272h-32zm0 0" fill="#9a826a"/><path d="m104 280c8.835938 0 16 7.164062 16 16v48h-32v-48c0-8.835938 7.164062-16 16-16zm0 0" fill="#766452"/><path d="m108 280.566406c-7.042969 1.820313-11.972656 8.160156-12 15.433594v48h24v-48c-.027344-7.273438-4.957031-13.613281-12-15.433594zm0 0" fill="#d9d9d9"/><path d="m240 248c13.253906 0 24 10.746094 24 24v72h-48v-72c0-13.253906 10.746094-24 24-24zm0 0" fill="#766452"/><path d="m244 248.398438c-11.523438 1.949218-19.96875 11.914062-20 23.601562v72h40v-72c-.03125-11.6875-8.476562-21.652344-20-23.601562zm0 0" fill="#d9d9d9"/><path d="m216 408h48v80h-48zm0 0" fill="#766452"/><path d="m224 416h40v72h-40zm0 0" fill="#d9d9d9"/><path d="m360 424h48v64h-48zm0 0" fill="#766452"/><path d="m368 432h40v56h-40zm0 0" fill="#d9d9d9"/><path d="m120 488h-48v-64h48zm0 0" fill="#766452"/><path d="m120 488h-40v-56h40zm0 0" fill="#d9d9d9"/><path d="m240 48-56 48h112zm0 0" fill="#836f5b"/><path d="m264 216h-48v-32c0-13.253906 10.746094-24 24-24s24 10.746094 24 24zm0 0" fill="#766452"/><path d="m244 160.398438c-11.523438 1.949218-19.96875 11.914062-20 23.601562v32h40v-32c-.03125-11.6875-8.476562-21.652344-20-23.601562zm0 0" fill="#8d7761"/><path d="m40 216h400v32h-400zm0 0" fill="#ac9380"/><path d="m40 216h400v16h-400zm0 0" fill="#998372"/><path d="m184 120h112v16h-112zm0 0" fill="#a48c7a"/><path d="m184 96h112v32h-112zm0 0" fill="#8d7761"/><path d="m306.054688 121.144531-6.855469-17.144531h-3.199219v112h16v-86.238281c-2.601562-2.390625-4.632812-5.335938-5.945312-8.617188zm0 0" fill="#a48c7a"/><path d="m304 56c0-4.417969-3.582031-8-8-8s-8 3.582031-8 8v432h16zm0 0" fill="#746250"/><path d="m336 96c0-4.417969-3.582031-8-8-8s-8 3.582031-8 8v392h16zm0 0" fill="#746250"/><path d="m440 216h16v272h-16zm0 0" fill="#917b64"/><g fill="#746250"><path d="m448 152c0-4.417969-3.582031-8-8-8s-8 3.582031-8 8v336h16zm0 0"/><path d="m472 144c-4.417969 0-8 3.582031-8 8v336h16v-336c0-4.417969-3.582031-8-8-8zm0 0"/><path d="m48 152c0-4.417969-3.582031-8-8-8s-8 3.582031-8 8v336h16zm0 0"/><path d="m16 152c0-4.417969-3.582031-8-8-8s-8 3.582031-8 8v336h16zm0 0"/><path d="m160 96c0-4.417969-3.582031-8-8-8s-8 3.582031-8 8v392h16zm0 0"/></g><path d="m177.601562 112-3.65625 9.144531c-1.3125 3.28125-3.34375 6.226563-5.945312 8.617188v86.238281h16v-104zm0 0" fill="#a48c7a"/><path d="m192 56c0-4.417969-3.582031-8-8-8s-8 3.582031-8 8v432h16zm0 0" fill="#746250"/><path d="m0 208h480v16h-480zm0 0" fill="#746250"/><path d="m384 280c8.835938 0 16 7.164062 16 16v48h-32v-48c0-8.835938 7.164062-16 16-16zm0 0" fill="#766452"/><path d="m388 280.566406c-7.042969 1.820313-11.972656 8.160156-12 15.433594v48h24v-48c-.027344-7.273438-4.957031-13.613281-12-15.433594zm0 0" fill="#d9d9d9"/><path d="m472 144c-4.417969 0-8 3.582031-8 8v19.054688l-4.425781-2.214844c-2.25-1.125-4.898438-1.125-7.148438 0l-4.425781 2.214844v-19.054688c0-4.417969-3.582031-8-8-8s-8 3.582031-8 8v21.390625l-40.375-11.535156c.203125-.601563.328125-1.222657.375-1.855469v-24c0-4.417969-3.582031-8-8-8s-8 3.582031-8 8v21.390625l-40-11.421875v-49.96875c0-4.417969-3.582031-8-8-8s-8 3.582031-8 8v29.695312c-2.941406-1.722656-5.230469-4.367187-6.511719-7.527343l-9.488281-23.710938v-38.457031c0-4.417969-3.582031-8-8-8s-8 3.582031-8 8v22.609375l-40-34.289063v-12.320312h8c4.417969 0 8-3.582031 8-8s-3.582031-8-8-8h-8v-8c0-4.417969-3.582031-8-8-8s-8 3.582031-8 8v8h-8c-4.417969 0-8 3.582031-8 8s3.582031 8 8 8h8v12.320312l-40 34.289063v-22.609375c0-4.417969-3.582031-8-8-8s-8 3.582031-8 8v38.457031l-9.488281 23.710938c-1.28125 3.160156-3.570313 5.804687-6.511719 7.527343v-29.695312c0-4.417969-3.582031-8-8-8s-8 3.582031-8 8v49.96875l-32 9.144531v-19.113281c0-4.417969-3.582031-8-8-8s-8 3.582031-8 8v23.679688l-48 13.710937v-21.390625c0-4.417969-3.582031-8-8-8s-8 3.582031-8 8v19.054688l-4.425781-2.214844c-2.25-1.125-4.898438-1.125-7.148438 0l-4.425781 2.214844v-19.054688c0-4.417969-3.582031-8-8-8s-8 3.582031-8 8v336c0 4.417969 3.582031 8 8 8h464c4.417969 0 8-3.582031 8-8v-336c0-4.417969-3.582031-8-8-8zm-440 336h-16v-96h16zm0-112h-16v-16h16zm0-32h-16v-112h16zm0-128h-16v-19.054688l8-4 8 4zm80 272h-32v-48h32zm32 0h-16v-56c0-4.417969-3.582031-8-8-8h-48c-4.417969 0-8 3.582031-8 8v56h-16v-96h96zm0-112h-96v-16h96zm-48-32v-40c0-4.417969 3.582031-8 8-8s8 3.582031 8 8v40zm48 0h-16v-40c0-13.253906-10.746094-24-24-24s-24 10.746094-24 24v40h-32v-80h96zm0-96h-96v-16h96zm0-32h-96v-17.96875l96-27.421875zm32 272h-16v-96h16zm0-112h-16v-16h16zm0-32h-16v-112h16zm0-128h-16v-65.007812c6.273438-1.6875 11.867188-5.285157 16-10.296876zm64-149.464844 34.398438 29.464844h-68.796876zm16 421.464844h-32v-64h32zm32 0h-16v-72c0-4.417969-3.582031-8-8-8h-48c-4.417969 0-8 3.582031-8 8v72h-16v-96h96zm0-112h-96v-16h96zm-64-32v-64c0-8.835938 7.164062-16 16-16s16 7.164062 16 16v64zm64 0h-16v-64c0-17.671875-14.328125-32-32-32s-32 14.328125-32 32v64h-16v-112h96zm-64-128v-24c0-8.835938 7.164062-16 16-16s16 7.164062 16 16v24zm64 0h-16v-24c0-17.671875-14.328125-32-32-32s-32 14.328125-32 32v24h-16v-72h96zm0-88h-96v-16h96zm32 360h-16v-96h16zm0-112h-16v-16h16zm0-32h-16v-112h16zm0-184v56h-16v-75.304688c4.132812 5.011719 9.726562 8.609376 16 10.296876zm80 328h-32v-48h32zm32 0h-16v-56c0-4.417969-3.582031-8-8-8h-48c-4.417969 0-8 3.582031-8 8v56h-16v-96h96zm0-112h-96v-16h96zm-56-32v-40c0-4.417969 3.582031-8 8-8s8 3.582031 8 8v40zm56 0h-24v-40c0-13.253906-10.746094-24-24-24s-24 10.746094-24 24v40h-24v-80h96zm0-96h-96v-16h96zm0-32h-96v-45.390625l96 27.421875zm32 272h-16v-96h16zm0-112h-16v-16h16zm0-32h-16v-112h16zm0-128h-16v-19.054688l8-4 8 4zm0 0"/></svg>