<svg height="512pt" viewBox="-99 0 512 512.001" width="512pt" xmlns="http://www.w3.org/2000/svg"><path d="m241.550781 142.542969 61.152344 22.257812-36.835937 101.214844-61.152344-22.257813zm0 0" fill="#78d0a9"/><path d="m225 198.757812v263.242188h-140v-263.242188c0-38.753906 31.488281-70.132812 70.242188-70 38.566406.132813 69.757812 31.433594 69.757812 70zm0 0" fill="#dff6fc"/><path d="m265 462v40h-220v-40zm0 0" fill="#98a1b3"/><path d="m155 50c-18.011719 0-32.84375 17.5-34.777344 40h69.558594c-1.933594-22.5-16.765625-40-34.78125-40zm0 0" fill="#78d0a9"/><g fill="#b0e7f8"><path d="m120.222656 90c-.140625 1.644531-.222656 3.308594-.222656 5 0 24.851562 15.671875 45 35 45 19.332031 0 35-20.148438 35-45 0-1.691406-.078125-3.355469-.21875-5zm0 0"/><path d="m305 216c0 11.046875-8.953125 20-20 20-11.042969 0-20-8.953125-20-20s8.957031-20 20-20c11.046875 0 20 8.953125 20 20zm0 0"/><path d="m197.410156 258.117188c-17.363281 6.363281-33.425781 18.710937-36.769531 21.367187-.203125.203125-.410156.398437-.613281.601563-4.527344 4.527343-9.261719 8.292968-14.082032 11.417968-30.792968 20.933594-61.402343 15.964844-70.945312 12.496094v121l36.90625-19.988281c9.019531-5.765625 19.972656-7.675781 30.410156-5.304688l9.28125 2.109375c11.652344 2.648438 23.878906-.050781 33.335938-7.363281l34.539062-34.441406c9.792969-7.578125 15.527344-19.261719 15.527344-31.644531v-69.367188s-16.324219-6.222656-37.589844-.882812zm0 0"/></g><path d="m214.335938 255.667969c-25.335938 0-54.335938 24.332031-54.335938 24.332031-35 34-74 28-85 24-17.554688-6.382812-39-1-39-1 0-20 24.007812-51.980469 41-59 46-19 87-16 104-40zm0 0" fill="#dff6fc"/><path d="m36 303-3.410156 14.785156c-2.859375 12.386719 6.550781 24.214844 19.265625 24.214844h22.144531v-38s-20-7-38-1zm0 0" fill="#78d0a9"/><path d="m101.484375 196.414062c-9.214844 4.402344-20.265625 1.117188-25.574219-7.601562l-53.257812-98.730469 36.089844-17.25 51.15625 95.28125c6.128906 10.0625 2.21875 23.21875-8.414063 28.300781zm0 0" fill="#b0e7f8"/><path d="m55 48c0 11.046875-8.953125 20-20 20-11.042969 0-20-8.953125-20-20s8.957031-38 20-38c11.046875 0 20 26.953125 20 38zm0 0" fill="#dff6fc"/><path d="m60 68-25 80-25-80zm0 0" fill="#78d0a9"/><path d="m175.050781 212.300781c1.710938 1.230469 3.722657 1.878907 5.820313 1.878907 3.21875 0 6.261718-1.558594 8.128906-4.179688 1.5625-2.171875 2.183594-4.808594 1.742188-7.449219-.429688-2.628906-1.871094-4.941406-4.039063-6.5-1.710937-1.230469-3.722656-1.871093-5.820313-1.871093-3.222656 0-6.261718 1.558593-8.132812 4.171874-1.558594 2.167969-2.179688 4.820313-1.738281 7.449219.429687 2.640625 1.871093 4.949219 4.039062 6.5zm0 0"/><path d="m303.339844 192.28125 8.753906-24.050781c1.890625-5.191407-.785156-10.929688-5.976562-12.820313l-61.152344-22.257812c-2.492188-.90625-5.242188-.785156-7.644532.335937-2.40625 1.121094-4.265624 3.148438-5.171874 5.644531l-7.449219 20.460938c-7.597657-13.441406-18.960938-24.492188-32.660157-31.6875 5.625-9.183594 8.960938-20.578125 8.960938-32.902344 0-6.140625-.847656-12.417968-2.539062-18.320312l19.613281-19.609375c3.90625-3.90625 3.90625-10.238281 0-14.144531-3.90625-3.902344-10.238281-3.902344-14.144531 0l-14.78125 14.785156c-2.023438-2.683594-4.265626-5.109375-6.683594-7.253906l8.132812-27.640626c1.554688-5.296874-1.476562-10.855468-6.773437-12.414062-5.296875-1.554688-10.859375 1.472656-12.417969 6.773438l-6.992188 23.773437c-2.726562-.625-5.539062-.953125-8.414062-.953125-2.871094 0-5.683594.328125-8.410156.953125l-6.992188-23.773437c-1.558594-5.300782-7.117187-8.332032-12.417968-6.773438-5.296876 1.558594-8.328126 7.117188-6.773438 12.414062l8.128906 27.640626c-2.417968 2.144531-4.65625 4.570312-6.679687 7.253906l-14.78125-14.785156c-3.90625-3.902344-10.238281-3.902344-14.144531 0-3.90625 3.90625-3.90625 10.238281 0 14.144531l19.609374 19.609375c-1.128906 3.953125-1.90625 8.125-2.28125 12.464844-.171874 1.984374-.257812 3.953124-.257812 5.855468 0 11.957032 3.148438 23.023438 8.472656 32.058594-5.328125 2.640625-10.371094 5.894531-15.046875 9.71875l-35.042969-65.269531.164063-.527344c.949219-3.035156.394531-6.339844-1.488281-8.90625-1.253906-1.703125-3-2.929687-4.960938-3.566406 1.226563-3.273438 1.902344-6.8125 1.902344-10.507813 0-7.257812-2.703125-18.191406-6.722656-27.214844-7.65625-17.183593-16.882813-20.789062-23.277344-20.789062-6.390625 0-15.617188 3.605469-23.273438 20.785156-4.023437 9.023438-6.726562 19.960938-6.726562 27.214844 0 3.695312.679688 7.234375 1.90625 10.507812-1.960938.640626-3.710938 1.863282-4.960938 3.570313-1.8867182 2.5625-2.4375 5.867187-1.488281 8.90625l25 80c1.304688 4.171875 5.167969 7.015625 9.542969 7.015625 4.214844 0 7.949219-2.640625 9.382812-6.566406l22.722657 42.125c.082031.152344.171875.304687.261719.453125 2.046874 3.367187 4.65625 6.183593 7.632812 8.414062v31.601563c-.605469.246094-1.210938.480468-1.820312.734375-5.378907 2.25-10.640626 5.828125-16.550782 11.269531-7.796875 7.25-15.1875 16.617188-20.808594 26.390625-6.609374 11.6875-9.730468 21.40625-9.820312 30.578125 0 .726562.085938 1.441406.242188 2.144531l-2.398438 10.390625c-2.050781 8.894532.03125 18.085938 5.710938 25.230469 5.683593 7.140625 14.171874 11.234375 23.296874 11.234375h12.148438v73c0 3.523438 1.855469 6.789062 4.882812 8.59375 1.574219.9375 3.347657 1.40625 5.117188 1.40625v17h-30c-5.519531 0-10 4.476562-10 10v40c0 5.523438 4.480469 10 10 10h220c5.523438 0 10-4.476562 10-10v-40c0-5.523438-4.476562-10-10-10h-30v-93.707031c6.382812-8.570313 10-19.097657 10-29.925781v-59.292969s17.414062 6.335937 17.4375 6.34375c4.972656 1.8125 10.9375-.808594 12.816406-5.976563l8.542969-23.472656c.402344.015625.800781.03125 1.203125.03125 16.542969 0 30-13.457031 30-30 0-9.640625-4.574219-18.226562-11.660156-23.71875zm-268.339844-171.699219c4.214844 4.058594 10 19.480469 10 27.417969 0 5.515625-4.484375 10-10 10-5.511719 0-10-4.484375-10-10 0-7.9375 5.789062-23.359375 10-27.417969zm0 93.890625-11.394531-36.472656h22.792969zm190 152.332032v61.5625c0 9.21875-4.351562 18.089843-11.644531 23.730468-.332031.257813-.648438.535156-.945313.832032l-34.0625 33.964843c-7.042968 5.238281-15.953125 7.121094-24.535156 5.171875l-9.28125-2.109375c-12.832031-2.917969-26.546875-.574219-37.6875 6.425781l-21.84375 11.828126v-24.890626c.078125-.050781.140625-.09375.222656-.152343 7.339844-5.039063 14.722656-10.027344 22.308594-14.695313 6.148438-3.78125 13.054688-8.902344 20.101562-10.824218 5.320313-1.449219 8.46875-6.960938 7.019532-12.28125-2.609375-9.566407-12.449219-7.488282-19.128906-4.328126-8.492188 4.058594-19.703126 11.171876-27.402344 16.160157-1.070313.695312-2.113282 1.375-3.121094 2.035156 0 0 0-42.730469 0-42.734375 0 1.179688 18.214844.453125 19.761719.308594 8.410156-.773438 16.992187-2.554688 24.859375-5.671875 15.285156-6.050781 27.582031-15.878907 40.496094-25.796875 16.011718-12.296875 34.097656-22.054688 54.882812-18.535156zm-10 111.785156v73.410156h-120v-26.460938l21.667969-11.734374c.210937-.113282.421875-.238282.625-.367188 6.71875-4.296875 15.03125-5.746094 22.808593-3.976562l9.28125 2.105468c14.617188 3.324219 29.808594-.03125 41.667969-9.203125.332031-.253906.644531-.535156.941407-.828125zm-59-318.589844c9.671875 0 18.417969 8.207031 22.523438 20h-45.042969c4.105469-11.792969 12.851562-20 22.519531-20zm24.734375 40c-1.792969 16.707031-12.390625 30-24.734375 30-12.339844 0-22.9375-13.292969-24.730469-30zm-128 24.785156 8.296875-26.550781 40.054688 74.609375c.085937.15625.175781.3125.269531.46875 3.011719 4.957031 1.03125 11.585938-4.183594 14.078125-4.535156 2.167969-9.914063.621094-12.605469-3.597656zm12.265625 207.214844s-12.113281 0-12.144531 0c-12.238281 0-9.296875-12.964844-7.554688-20.484375.496094-2.082031 19.703125-.171875 19.703125.242187-.003906.007813-.003906 20.242188-.003906 20.242188zm-15.777344-41.761719c5.546875-13.105469 17.691406-31.597656 31.597656-37 16.929688-7.007812 62.480469-17.839843 68.980469-19.679687 5.300781-1.519532 8.371094-7.070313 6.851563-12.367188-1.460938-5.101562-7.09375-8.386718-12.371094-6.863281-5.738281 1.660156-38.570312 9.433594-49.28125 12.691406v-18.722656c3.648438-.261719 7.304688-1.191406 10.796875-2.863281 7.613281-3.636719 13.359375-10.363282 15.765625-18.453125 3.480469-11.71875-2.046875-22.09375-7.4375-32.132813 5.734375-5.347656 12.339844-9.449218 19.488281-12.167968 6.597657 4.648437 14.238281 7.320312 22.386719 7.320312 7.835938 0 15.207031-2.464844 21.632812-6.789062 21.890626 8.964843 37.367188 30.503906 37.367188 55.546874v46.945313c-.21875-.015625-.441406-.03125-.667969-.03125-20.316406.144531-37.894531 9.683594-53.609375 21.789063-12.902344 9.9375-25.550781 20.929687-40.984375 26.109374-11.667969 3.914063-25.085937 7.019532-36.308593 2.171876-17.929688-7.742188-34.273438-5.34375-34.207032-5.503907zm205.777344 181.761719v20h-200v-20zm0-256c0 8.96875 3.964844 17.027344 10.222656 22.527344l-5.339844 14.675781-24.878906-9.054687v-45.390626c0-2.664062-.148437-5.292968-.402344-7.890624l12.921876-35.5 42.355468 15.417968-5.542968 15.230469c-16.234376.355469-29.335938 13.664063-29.335938 29.984375zm30 10c-5.511719 0-10-4.484375-10-10s4.488281-10 10-10c5.515625 0 10 4.484375 10 10s-4.484375 10-10 10zm0 0"/><path d="m193.992188 316c-2.351563 0-4.652344.839844-6.449219 2.371094l-26 22c-4.210938 3.558594-4.730469 9.878906-1.171875 14.089844 1.902344 2.25 4.679687 3.539062 7.628906 3.539062 2.363281 0 4.660156-.839844 6.460938-2.371094l26-22c4.210937-3.558594 4.742187-9.878906 1.171874-14.089844-1.902343-2.25-4.679687-3.539062-7.640624-3.539062zm0 0"/></svg>