<?xml version="1.0" encoding="iso-8859-1"?>
<!-- Generator: Adobe Illustrator 21.0.0, SVG Export Plug-In . SVG Version: 6.00 Build 0)  -->
<svg version="1.1" id="Capa_1" xmlns="http://www.w3.org/2000/svg" xmlns:xlink="http://www.w3.org/1999/xlink" x="0px" y="0px"
	 viewBox="0 0 595.049 595.049" style="enable-background:new 0 0 595.049 595.049;" xml:space="preserve">
<g>
	<g>
		<g id="filled_outline_8_">
			<path style="fill:#C3C9D1;" d="M386.782,436.369H208.267l-79.34,148.762h79.34l10.909-32.807
				c14.42-43.25,61.161-66.636,104.421-52.216c24.655,8.212,44.004,27.561,52.216,52.216l10.969,32.807h79.34L386.782,436.369z"/>
			<polygon style="fill:#C3C9D1;" points="337.194,436.369 386.782,436.369 347.112,327.277 247.937,327.277 208.267,436.369 
				257.855,436.369 277.69,366.947 317.359,366.947 			"/>
			<polygon style="fill:#C3C9D1;" points="257.855,327.277 277.69,99.175 317.359,99.175 337.194,327.277 			"/>
			<rect x="109.092" y="575.214" style="fill:#D0D7DF;" width="128.927" height="19.835"/>
			<rect x="357.029" y="575.214" style="fill:#D0D7DF;" width="128.927" height="19.835"/>
			<polygon style="fill:#A4B0BF;" points="319.948,128.927 317.359,99.175 277.69,99.175 275.101,128.927 			"/>
			<rect x="287.607" style="fill:#C3C9D1;" width="19.835" height="59.505"/>
			<rect x="277.69" y="59.505" style="fill:#C3C9D1;" width="39.67" height="39.67"/>
			<rect x="257.855" y="89.257" style="fill:#D0D7DF;" width="79.34" height="19.835"/>
			<rect x="307.442" y="89.257" style="fill:#D6D6D6;" width="29.752" height="19.835"/>
			<polygon style="fill:#A4B0BF;" points="357.932,357.029 347.112,327.277 247.937,327.277 237.117,357.029 			"/>
			<rect x="228.102" y="317.359" style="fill:#D0D7DF;" width="138.845" height="19.835"/>
			<polygon style="fill:#A4B0BF;" points="402.65,466.122 386.782,436.369 208.267,436.369 192.399,466.122 			"/>
			<rect x="188.432" y="426.452" style="fill:#D0D7DF;" width="218.185" height="19.835"/>
			<rect x="337.194" y="317.359" style="fill:#D6D6D6;" width="29.752" height="19.835"/>
			<rect x="376.864" y="426.452" style="fill:#D6D6D6;" width="29.752" height="19.835"/>
			<rect x="456.204" y="575.214" style="fill:#D6D6D6;" width="29.752" height="19.835"/>
			<rect x="208.267" y="575.214" style="fill:#D6D6D6;" width="29.752" height="19.835"/>
			<path d="M208.267,595.049h29.752v-19.835h-15.997l6.585-19.756c12.675-38.063,53.802-58.652,91.876-45.977
				c21.709,7.23,38.748,24.268,45.977,45.977l6.565,19.756h-15.997v19.835h128.927v-19.835h-13.884l-68.758-128.927h13.22v-19.835
				h-22.81l-32.46-89.257h15.6v-19.835h-21.045l-27.164-208.267h18.456V89.257h-19.835V59.505c0-5.474-4.443-9.917-9.917-9.917
				h-9.918V0h-19.835v49.587h-9.917c-5.474,0-9.917,4.443-9.917,9.917v29.752h-19.835v19.835h18.456L239.23,317.359h-21.045v19.835
				h15.59l-32.45,89.257h-22.81v19.835h13.22l-68.758,128.927h-13.884v19.835H208.267z M287.607,69.422h19.835v19.835h-19.835
				V69.422z M286.397,109.092h22.255l27.164,208.267h-76.583L286.397,109.092z M254.879,337.194h85.29l32.45,89.257h-27.947
				L326.89,364.22c-1.22-4.255-5.108-7.19-9.531-7.19h-39.67c-4.423,0-8.311,2.936-9.531,7.19l-17.782,62.232h-27.947
				L254.879,337.194z M324.044,426.452h-53.039l14.162-49.587h24.714L324.044,426.452z M214.218,446.287h166.614l68.758,128.927
				h-55.657l-8.678-26.033c-16.156-48.457-68.54-74.629-116.987-58.473c-27.6,9.203-49.26,30.863-58.473,58.473l-8.678,26.033
				H145.46L214.218,446.287z"/>
		</g>
	</g>
</g>
<g>
</g>
<g>
</g>
<g>
</g>
<g>
</g>
<g>
</g>
<g>
</g>
<g>
</g>
<g>
</g>
<g>
</g>
<g>
</g>
<g>
</g>
<g>
</g>
<g>
</g>
<g>
</g>
<g>
</g>
</svg>
